<svg width="38" height="38" viewBox="0 0 38 38" fill="none" xmlns="http://www.w3.org/2000/svg">
<path d="M19 3.5625C10.488 3.5625 3.5625 10.488 3.5625 19C3.5625 27.512 10.488 34.4375 19 34.4375C27.512 34.4375 34.4375 27.512 34.4375 19C34.4375 10.488 27.512 3.5625 19 3.5625ZM19 5.9375C26.2283 5.9375 32.0625 11.7717 32.0625 19C32.0625 22.2371 30.8869 25.1821 28.9453 27.4609L10.7231 8.87062C13.0587 6.96308 15.9845 5.92625 19 5.9375ZM9.05469 10.5391L27.2769 29.1294C24.9413 31.0369 22.0155 32.0737 19 32.0625C11.7717 32.0625 5.9375 26.2283 5.9375 19C5.9375 15.7629 7.11313 12.8179 9.05469 10.5391Z" fill="black"/>
</svg>
